<svg width="1920" height="850" viewBox="0 0 1920 850" fill="none" xmlns="http://www.w3.org/2000/svg">
<path fill-rule="evenodd" clip-rule="evenodd" d="M0 22.4069C98.3719 3.40472 337.461 -18.6977 484.869 26.9074C590.436 59.5678 778.686 77.4461 960 85.1666C1141.31 77.4461 1329.56 59.5678 1435.13 26.9074C1582.54 -18.6977 1821.63 3.40472 1920 22.4069V709.484V713.985C1902.92 717.307 1883.79 721.082 1862.89 725.205C1767.06 744.116 1634.09 770.353 1491.28 793.892C1315.72 824.321 1125.01 850 970.736 850C967.178 850 963.599 849.987 960 849.961C956.401 849.987 952.822 850 949.264 850C794.987 850 604.284 824.321 428.717 793.892C285.909 770.353 152.945 744.116 57.1081 725.205C36.2129 721.082 17.0826 717.307 0 713.985V709.484V87.4142V22.4069Z" fill="#FFEDE6"/>
</svg>
